<svg width="134" height="20" viewBox="0 0 134 20" fill="none" xmlns="http://www.w3.org/2000/svg">
<path d="M120.064 3.52942C119.865 3.91514 119.672 4.29228 119.531 4.56442C118.294 4.16585 117.122 3.65156 115.899 3.43728C114.984 3.27656 113.981 3.39871 113.051 3.57657C111.836 3.80799 111.058 4.77013 110.929 5.82228C110.794 6.9237 111.223 7.73156 112.189 8.18156C112.989 8.55442 113.85 8.80299 114.696 9.06656C115.783 9.40514 116.914 9.62156 117.969 10.033C119.616 10.6758 120.786 11.8651 120.726 13.7123C120.66 15.7823 119.878 16.978 117.889 17.7001C114.943 18.7716 112.071 18.4437 109.438 16.6437C109.153 16.4487 108.926 16.1701 108.624 15.883C108.889 15.4116 109.123 14.9958 109.412 14.4773C111.259 16.2623 113.415 16.8001 115.776 16.5194C116.494 16.4337 117.255 16.1916 117.866 15.8101C119.342 14.8866 119.329 12.6923 117.763 11.953C116.269 11.248 114.606 10.9094 113.031 10.3673C112.264 10.1037 111.456 9.85085 110.794 9.40299C108.508 7.85371 108.456 4.41871 110.756 2.87156C111.63 2.28442 112.753 1.93514 113.807 1.77442C115.738 1.47871 117.643 1.76585 119.419 2.80727C119.518 2.41513 119.584 2.14942 119.666 1.82799H132.656V3.44585H127.065V18.013H125.276V3.52728H120.069L120.064 3.52942Z" fill="#DAA78D"/>
<path d="M67.0134 18.0474H65.2798V1.83667H66.7155C70.0112 6.03453 73.5576 10.5016 76.8684 14.7188C76.7912 14.7338 76.9476 14.7037 76.8684 14.7188V1.85382H78.5955V17.9981H78H77.1962C77.1962 17.9981 70.33 9.23 67 5L67.0134 18.0474Z" fill="#DAA78D"/>
<path d="M1.43334 18.1031C1.43334 18.1031 1.43334 17.7817 1.43334 17.6831C1.42691 15.0838 1.42905 9.74809 1.42905 9.74809H3.1562V16.4938C5.7512 16.3867 8.19405 16.7874 10.6005 16.0459C11.8326 15.6667 12.8655 14.9852 13.6176 13.9481C15.1283 11.8631 15.2783 9.5488 14.3376 7.24951C13.3348 4.79808 11.2691 3.64952 8.6912 3.51666C6.66406 3.41166 4.6262 3.48237 2.59262 3.47594C2.24548 3.47594 1.89834 3.47594 1.47834 3.47594V1.77237C1.47834 1.77237 2.08691 1.77237 2.35905 1.77237C4.46334 1.76809 6.56977 1.70166 8.67191 1.79808C11.5433 1.9288 13.9219 3.12023 15.4691 5.59952C18.4348 10.3524 16.0412 17.4624 9.22263 18.0367C6.84834 18.2359 4.4462 18.0967 2.05691 18.1031C1.88762 18.1031 1.43334 18.1031 1.43334 18.1031Z" fill="#DAA78D"/>
<path d="M60.6166 15.2102V9.79302H62.333C62.333 9.79302 62.3308 10.3309 62.333 10.603C62.3415 12.1716 62.3116 13.7423 62.348 15.3109C62.363 15.9173 62.1401 16.3137 61.6666 16.6544C60.038 17.8266 58.2016 18.2873 56.228 18.2659C52.3366 18.2252 49.3151 16.1209 48.188 12.4223C46.8658 8.08516 49.0194 3.61944 53.2151 2.21801C56.0651 1.26659 58.8294 1.44445 61.3966 3.13945C61.7758 3.39016 62.1016 3.7223 62.5194 4.07588C62.1551 4.49373 61.838 4.85802 61.4287 5.3273C59.4058 3.42016 57.023 3.03016 54.4623 3.62374C52.9644 3.97088 51.7494 4.82159 50.8258 6.08373C49.0516 8.5073 49.3216 12.5809 51.5266 14.6359C53.9651 16.9073 57.8608 17.2459 60.6166 15.2102Z" fill="#DAA78D"/>
<path d="M83.8151 18.0603H82.1094V11.3339C82.6451 11.2996 83.1616 11.3446 83.6801 11.3339C85.6044 11.2867 87.533 11.3232 89.4509 11.1925C91.418 11.0575 92.6309 9.75461 92.8023 7.81318C92.9844 5.75604 92.0587 4.30103 90.1301 3.75246C89.4894 3.57032 88.7973 3.51032 88.1266 3.49746C86.2023 3.45675 84.2759 3.46746 82.3494 3.45246C82.2873 3.45246 82.223 3.40103 82.0923 3.34318V1.89032C82.3237 1.84746 82.5251 1.77461 82.7287 1.77461C84.7623 1.77032 86.7959 1.72532 88.8273 1.80032C90.4259 1.86032 91.9087 2.35103 93.0959 3.49746C95.5816 5.90175 95.123 10.1853 92.1937 12.0003C91.8937 12.1868 91.6001 12.3818 91.2723 12.5939C92.4016 14.4003 93.8351 15.9689 94.9409 18.0196H93.0273C91.8551 16.3975 90.6101 14.6789 89.4251 13.0417H83.813V18.0646L83.8151 18.0603Z" fill="#DAA78D"/>
<path d="M30.362 15.9088C30.6556 15.4095 30.8827 15.0195 31.1013 14.6467C32.0077 15.1502 32.8284 15.6988 33.722 16.0802C35.3163 16.7595 36.9963 16.7852 38.642 16.3031C39.2206 16.1338 39.827 15.7417 40.2106 15.2767C41.2327 14.0402 40.7677 12.3517 39.1691 11.6959C37.8599 11.1581 36.4541 10.8624 35.0934 10.4467C34.5491 10.2817 34.0027 10.1167 33.4777 9.90238C32.0206 9.31095 31.0456 8.30809 30.8913 6.67309C30.7263 4.91166 31.3949 3.52523 32.897 2.6038C34.8513 1.4038 36.9899 1.49166 39.1049 1.98238C40.0777 2.20738 40.9777 2.74523 41.972 3.16738C41.6913 3.79952 41.4941 4.24309 41.3549 4.55381C40.0177 4.13381 38.8006 3.58952 37.5299 3.40738C36.5484 3.26595 35.4727 3.46095 34.4913 3.7138C33.3491 4.00737 32.7384 4.89023 32.687 6.09023C32.642 7.14666 33.1756 7.9588 34.4077 8.38952C36.017 8.95095 37.682 9.35381 39.3041 9.88523C39.902 10.0802 40.487 10.3845 41.0034 10.7445C42.4113 11.7259 42.7049 13.1809 42.377 14.7345C42.0213 16.4274 40.8041 17.4581 39.2099 17.8995C36.6813 18.5981 34.1913 18.3902 31.8684 17.0831C31.3263 16.7788 30.8741 16.3159 30.3599 15.9088H30.362Z" fill="#DAA78D"/>
<path d="M44.2861 1.82593H45.9554V18.0281H44.2861V1.82593Z" fill="#DAA78D"/>
<path d="M29.2863 1.84961V3.40746H18.5527V1.84961H29.2863Z" fill="#DAA78D"/>
<path d="M29.3052 9.13086V10.588H18.5674V9.13086H29.3052Z" fill="#DAA78D"/>
<path d="M96.7817 3.39244V1.81958H107.449V3.39244H96.7817Z" fill="#DAA78D"/>
<path d="M96.7988 10.6181V9.08813H107.449V10.6181H96.7988Z" fill="#DAA78D"/>
<path d="M29.3097 16.5881V17.996H18.5762V16.5881H29.3097Z" fill="#DAA78D"/>
<path d="M107.481 16.584V18.024H96.8311V16.584H107.481Z" fill="#DAA78D"/>
</svg>
