<svg width="40" height="40" viewBox="0 0 40 40" fill="none" xmlns="http://www.w3.org/2000/svg">
<mask id="mask0_1_205" style="mask-type:alpha" maskUnits="userSpaceOnUse" x="0" y="0" width="40" height="40">
<rect width="40" height="40" fill="#D9D9D9"/>
</mask>
<g mask="url(#mask0_1_205)">
<path d="M25.4733 19.9659L12.33 6.84428C12.13 6.62983 12.0269 6.36567 12.0208 6.05178C12.0147 5.73817 12.1189 5.47914 12.3333 5.2747C12.5519 5.05609 12.8182 4.94678 13.1321 4.94678C13.4457 4.94678 13.7118 5.05609 13.9304 5.2747L26.9275 18.2747C27.1839 18.5169 27.3626 18.7844 27.4638 19.0772C27.5649 19.3697 27.6154 19.6659 27.6154 19.9659C27.6154 20.2801 27.5649 20.5836 27.4638 20.8764C27.3626 21.1689 27.1839 21.4362 26.9275 21.6784L13.9208 34.6851C13.7022 34.9037 13.4376 35.0114 13.1271 35.008C12.8165 35.005 12.5519 34.8941 12.3333 34.6755C12.1189 34.4711 12.0106 34.213 12.0083 33.9014C12.0064 33.5897 12.1147 33.3246 12.3333 33.1059L25.4733 19.9659Z" fill="#F9F9FC"/>
</g>
</svg>
