<svg width="40" height="40" viewBox="0 0 40 40" fill="none" xmlns="http://www.w3.org/2000/svg">
<mask id="mask0_1_211" style="mask-type:alpha" maskUnits="userSpaceOnUse" x="0" y="0" width="40" height="40">
<rect width="40" height="40" fill="#D9D9D9"/>
</mask>
<g mask="url(#mask0_1_211)">
<path d="M14.5233 19.9999L27.6454 33.1216C27.8598 33.336 27.9665 33.5996 27.9654 33.9124C27.9643 34.2249 27.8565 34.4906 27.6421 34.7095C27.4376 34.9281 27.1755 35.0374 26.8558 35.0374C26.5361 35.0374 26.2668 34.9281 26.0479 34.7095L13.0479 21.6912C12.806 21.449 12.6308 21.1814 12.5225 20.8887C12.4142 20.5959 12.36 20.2996 12.36 19.9999C12.36 19.7002 12.4142 19.404 12.5225 19.1112C12.6308 18.8184 12.806 18.5438 13.0479 18.2874L26.0758 5.28076C26.2803 5.06214 26.5383 4.95451 26.85 4.95784C27.1617 4.96089 27.4268 5.07173 27.6454 5.29034C27.8598 5.50923 27.968 5.77395 27.97 6.08451C27.9722 6.39478 27.864 6.65937 27.6454 6.87826L14.5233 19.9999Z" fill="#F9F9FC"/>
</g>
</svg>
