<svg width="32" height="36" viewBox="0 0 16 18" fill="none" xmlns="http://www.w3.org/2000/svg">
<path stroke="2" d="M0.433338 17.1031C0.433338 17.1031 0.433338 16.7817 0.433338 16.6831C0.426909 14.0838 0.429055 8.74809 0.429055 8.74809H2.1562V15.4938C4.7512 15.3867 7.19405 15.7874 9.60048 15.0459C10.8326 14.6667 11.8655 13.9852 12.6176 12.9481C14.1283 10.8631 14.2783 8.5488 13.3376 6.24951C12.3348 3.79808 10.2691 2.64952 7.6912 2.51666C5.66406 2.41166 3.6262 2.48237 1.59262 2.47594C1.24548 2.47594 0.898343 2.47594 0.478343 2.47594V0.772371C0.478343 0.772371 1.08691 0.772371 1.35905 0.772371C3.46334 0.768085 5.56977 0.701656 7.67191 0.798084C10.5433 0.928799 12.9219 2.12023 14.4691 4.59952C17.4348 9.35238 15.0412 16.4624 8.22263 17.0367C5.84834 17.2359 3.4462 17.0967 1.05691 17.1031C0.887625 17.1031 0.433338 17.1031 0.433338 17.1031Z" fill="#DAA78D"/>
</svg>
